<svg width="78" height="78" viewBox="0 0 78 78" fill="none" xmlns="http://www.w3.org/2000/svg">
<path d="M49.8 77.9714V30H77.4V35.3886H55.6486V50.24H75.1V55.4971H55.6486V72.5829H77.4V77.9714H49.8Z" fill="#FFFCF2"/>
<path d="M0 78V0H14.2286L40.67 66.7808C40.5119 65 40.3143 62.8274 40.0771 60.263C39.919 57.6274 39.7609 54.8849 39.6028 52.0356C39.5238 49.1151 39.4843 46.3726 39.4843 43.8082V0H49.8V78H35.5714L9.24857 11.2192C9.40666 12.9288 9.56476 15.1014 9.72286 17.737C9.88095 20.3014 9.99952 23.0438 10.0786 25.9644C10.2367 28.8137 10.3157 31.5562 10.3157 34.1918V78H0Z" fill="#EB5E28"/>
<path d="M2.40002 74.7071V64.8H6.05546L6.4272 65.9128H3.60788V68.98H7.62502V70.0657H3.60788V73.5943H8.10002V74.7071H2.40002Z" fill="#FFFCF2"/>
</svg>
